<?xml version="1.0" encoding="utf-8"?>
<!-- Generator: Adobe Illustrator 16.0.3, SVG Export Plug-In . SVG Version: 6.00 Build 0)  -->
<!DOCTYPE svg PUBLIC "-//W3C//DTD SVG 1.1//EN" "http://www.w3.org/Graphics/SVG/1.1/DTD/svg11.dtd">
<svg version="1.1" id="Layer_1" xmlns="http://www.w3.org/2000/svg" xmlns:xlink="http://www.w3.org/1999/xlink" x="0px" y="0px"
	 width="346.2px" height="160.3px" viewBox="0 0 346.2 160.3" style="enable-background:new 0 0 346.2 160.3;" xml:space="preserve"
	>
<style type="text/css">
<![CDATA[
	.st0{display:none;fill:#9E9B9C;}
	.st1{fill:#EB1B5E;}
	.st2{fill:#231F20;}
	.st3{fill:#243C7A;}
	.st4{fill:#626366;}
	.st5{fill:#43C6D0;}
]]>
</style>
<g>
	<g>
		<path id="navy" class="st3" d="M109.1,80.1c0,15.2-12.3,27.5-27.5,27.5S54.1,95.3,54.1,80.1s12.3-27.5,27.5-27.5
			S109.1,65,109.1,80.1 M131.9,80.1c0-27.7-22.5-50.2-50.2-50.2S31.4,52.4,31.4,80.1c0,27.7,22.5,50.2,50.2,50.2
			S131.9,107.9,131.9,80.1"/>
		
			<rect id="blue" x="78.1" y="93" transform="matrix(0.7071 0.7071 -0.7071 0.7071 105.0351 -44.4408)" class="st5" width="56" height="23.2"/>
		<g id="pink">
			<polygon class="st1" points="119.5,130.8 132.4,117.9 120.3,118.7 			"/>
			<polygon class="st1" points="114.7,113.1 113.7,128.5 108,122.8 109.1,107.5 124.4,106.4 130.1,112.1 			"/>
			<polygon class="st1" points="103.4,101.8 102.4,117.2 96.8,111.6 97.8,96.2 113.2,95.2 118.8,100.8 			"/>
			<polygon class="st1" points="92.2,90.6 91.1,105.9 85.5,100.3 86.5,84.9 101.9,83.9 107.5,89.5 			"/>
		</g>
	</g>
	<path id="qudos-text_4_" class="st2" d="M301,76.7c-6.9,0-12-2.3-14.8-7.7l7.8-2.8c1.6,2.6,4,3.7,7.6,3.7c2,0,3.7-0.8,3.7-2.2
		c0-1.6-1.9-2.2-5.3-2.6c-6.2-0.7-12.3-2.2-12.3-9c0-6.3,5.6-9.3,12.8-9.3c6.4,0,11,2.5,13.9,6.6l-7,3.2c-2-2.4-4.7-3.1-7.1-3.1
		c-1.6,0-3.1,0.6-3.1,2c0,1.4,1.6,2,4.8,2.3c8.1,1,12.7,3.2,12.7,9.1C314.8,72.7,310,76.7,301,76.7"/>
	<path id="qudos-text_3_" class="st2" d="M269.8,76.7c-9.5,0-15.7-5.8-15.7-14.9c0-9.1,6.2-15,15.7-15c9.5,0,15.7,5.9,15.7,15
		C285.5,70.9,279.3,76.7,269.8,76.7 M269.8,54.7c-3.6,0-5.4,2.8-5.4,7c0,4.2,1.9,6.9,5.4,6.9c3.6,0,5.4-2.8,5.4-6.9
		C275.2,57.6,273.4,54.7,269.8,54.7"/>
	<path id="qudos-text_2_" class="st2" d="M241,76.1v-2.7c-2.2,2.1-4.9,3.3-8.2,3.3c-8,0-13-6.5-13-15c0-8.6,5-15,13-15
		c3.3,0,6,1.2,8.2,3.2V38.2h9.7v37.9H241z M235.4,55c-3.7,0-5.4,3.2-5.4,6.8c0,3.6,1.7,6.6,5.4,6.6c3.8,0,5.6-3,5.6-6.6
		C241,58.1,239.2,55,235.4,55"/>
	<path id="qudos-text_1_" class="st2" d="M206.6,76.1v-2.6c-2.2,2-5.1,3.2-8.1,3.2c-6.6,0-9.5-4.7-9.5-10.1V47.4h9.7v17
		c0,2,0.7,3.8,3.7,3.8c2.2,0,4.2-1.3,4.2-4.2V47.4h9.7v28.7H206.6z"/>
	<path id="qudos-text" class="st2" d="M180.7,71.1l3.8,4.2l-6.4,5.3l-4.1-5.1c-2.1,0.7-4.5,1.1-7,1.1c-11.6,0-18.4-8.2-18.4-18.4
		c0-10.1,6.8-18.2,18.4-18.2s18.5,8.2,18.5,18.2C185.4,63.3,183.7,67.8,180.7,71.1 M166.9,49.2c-5.4,0-8,4.3-8,9.1
		c0,4.9,2.7,9.3,8,9.3h0.6l-2.9-3.6l5.7-4.6l3.6,4c0.7-1.5,1.2-3.3,1.2-5.1C175,53.5,172.3,49.2,166.9,49.2"/>
	<polygon id="bank-text_3_" class="st4" points="260,93 264.5,93 252.8,104.6 265.8,120.6 261.3,120.6 250.4,106.8 244.8,112.4 
		244.8,120.6 241.4,120.6 241.4,82.7 244.8,82.7 244.8,108.4 	"/>
	<path id="bank-text_2_" class="st4" d="M212.6,120.6V93.2h3.4v5c2.3-3.7,5.7-5.6,9.5-5.6c6.8,0,9.9,4.7,9.9,10.5v17.4h-3.4v-16.3
		c0-5-1.9-8.3-7.1-8.3c-4.9,0-9,4-9,9.7v15H212.6z"/>
	<path id="bank-text_1_" class="st4" d="M206,121c-2.6,0-4.9-1.4-5.2-4.7c-2.7,3.8-6.3,4.9-9.9,4.9c-5.1,0-9-3.1-9-8.1
		c0-6.5,5.5-7.8,9.2-8.3c5-0.6,9.4-0.8,9.4-4.6c0-3.3-3.6-4.5-6.9-4.5c-2.9,0-5.9,1-8.4,3l-1.9-2.5c2.9-2.2,6.4-3.6,10.2-3.6
		c6.4,0,10.5,2.7,10.5,8.7v13.4c0,2.3,0.6,3.3,2.5,3.3c0.5,0,1.2-0.1,1.6-0.3l0.5,2.8C207.8,120.9,206.7,121,206,121 M200.6,104.6
		c-1.9,2.3-4.2,2.5-8.9,3.2c-3.7,0.5-6.3,1.6-6.3,5.1c0,3.7,2.9,5.2,6.3,5.2c4.5,0,9-2.3,9-8.2V104.6L200.6,104.6z"/>
	<path id="bank-text" class="st4" d="M167.8,120.6h-16.5V85.2h15.7c5.4,0,9.5,3,9.5,8.3c0,3.2-1.8,6.1-4.6,7.7
		c4.1,1.7,6.2,5.1,6.2,9.2C178,115.9,174.3,120.6,167.8,120.6 M166.3,88.7h-11.3v11.4h11.3c3.7,0,6.4-2.4,6.4-6.2
		C172.7,90.3,169.9,88.7,166.3,88.7 M167.7,103.5h-12.8v13.5h12.8c3.6,0,6.4-2.6,6.4-6.6C174.1,106.3,171.4,103.5,167.7,103.5"/>
</g>
<path id="hide-me_3_" class="st0" d="M15.7,29.9C6.2,29.9,0,24.1,0,15C0,5.9,6.2,0,15.7,0c9.5,0,15.7,5.9,15.7,15
	C31.4,24.1,25.2,29.9,15.7,29.9 M15.7,8c-3.6,0-5.4,2.8-5.4,7c0,4.2,1.9,6.9,5.4,6.9c3.6,0,5.4-2.8,5.4-6.9C21.1,10.8,19.3,8,15.7,8
	"/>
<path id="hide-me_2_" class="st0" d="M330.5,29.9c-9.5,0-15.7-5.8-15.7-14.9c0-9.1,6.2-15,15.7-15c9.5,0,15.7,5.9,15.7,15
	C346.2,24.1,340.1,29.9,330.5,29.9 M330.5,8c-3.6,0-5.4,2.8-5.4,7c0,4.2,1.9,6.9,5.4,6.9c3.6,0,5.4-2.8,5.4-6.9
	C335.9,10.8,334.1,8,330.5,8"/>
<path id="hide-me_1_" class="st0" d="M330.5,160.3c-9.5,0-15.7-5.8-15.7-14.9c0-9.1,6.2-15,15.7-15c9.5,0,15.7,5.9,15.7,15
	C346.2,154.5,340.1,160.3,330.5,160.3 M330.5,138.3c-3.6,0-5.4,2.8-5.4,7c0,4.2,1.9,6.9,5.4,6.9c3.6,0,5.4-2.8,5.4-6.9
	C335.9,141.1,334.1,138.3,330.5,138.3"/>
<path id="hide-me" class="st0" d="M15.7,160.3c-9.5,0-15.7-5.8-15.7-14.9c0-9.1,6.2-15,15.7-15c9.5,0,15.7,5.9,15.7,15
	C31.4,154.5,25.2,160.3,15.7,160.3 M15.7,138.3c-3.6,0-5.4,2.8-5.4,7c0,4.2,1.9,6.9,5.4,6.9c3.6,0,5.4-2.8,5.4-6.9
	C21.1,141.1,19.3,138.3,15.7,138.3"/>
</svg>
